<?xml version="1.0" standalone="no"?>
<!DOCTYPE svg PUBLIC "-//W3C//DTD SVG 20010904//EN"
 "http://www.w3.org/TR/2001/REC-SVG-20010904/DTD/svg10.dtd">
<svg version="1.0" xmlns="http://www.w3.org/2000/svg"
 width="1332.000000pt" height="1332.000000pt" viewBox="0 0 1332.000000 1332.000000"
 preserveAspectRatio="xMidYMid meet">
<metadata>
Created by potrace 1.14, written by Peter Selinger 2001-2017
</metadata>
<g transform="translate(0.000000,1332.000000) scale(0.100000,-0.100000)"
fill="#000000" stroke="none">
<path d="M7378 13315 c-2 -1 -62 -6 -134 -9 -72 -4 -149 -9 -170 -11 -21 -2
-75 -7 -120 -10 -44 -3 -92 -8 -105 -10 -13 -2 -55 -6 -94 -9 -38 -4 -81 -8
-95 -11 -14 -2 -45 -7 -70 -9 -25 -3 -56 -7 -70 -10 -14 -2 -47 -7 -73 -11
-26 -3 -71 -10 -99 -15 -28 -6 -53 -8 -56 -5 -3 2 -13 0 -23 -6 -10 -5 -40
-12 -66 -15 -26 -3 -57 -8 -68 -11 -11 -4 -27 -8 -35 -9 -44 -7 -78 -14 -100
-20 -63 -15 -106 -25 -120 -27 -9 -2 -20 -6 -25 -9 -6 -3 -26 -9 -45 -13 -46
-9 -256 -76 -345 -110 -38 -15 -74 -28 -80 -29 -5 -1 -32 -12 -60 -25 -27 -13
-54 -24 -60 -25 -5 -1 -21 -8 -35 -16 -14 -8 -27 -15 -30 -15 -3 0 -43 -19
-90 -41 -47 -22 -89 -41 -94 -41 -5 -1 -12 -5 -15 -10 -3 -4 -22 -16 -41 -25
-19 -10 -55 -29 -80 -44 -113 -65 -188 -110 -225 -134 -22 -15 -60 -40 -85
-56 -25 -16 -50 -33 -57 -39 -7 -5 -19 -16 -27 -22 -8 -7 -19 -13 -23 -13 -4
0 -37 -22 -73 -50 -36 -27 -74 -56 -85 -64 -175 -133 -339 -292 -446 -431 -13
-16 -30 -37 -39 -45 -8 -8 -35 -42 -60 -75 -25 -33 -48 -64 -53 -70 -51 -68
-77 -106 -77 -114 0 -5 -4 -11 -8 -13 -10 -4 -130 -195 -160 -255 -12 -23 -26
-45 -32 -48 -6 -4 -8 -10 -5 -15 3 -4 -2 -13 -10 -20 -8 -7 -15 -21 -15 -31 0
-11 -3 -19 -7 -19 -5 0 -19 -27 -33 -60 -14 -33 -28 -60 -32 -60 -5 0 -7 -3
-6 -7 2 -7 -36 -103 -82 -208 -16 -38 -68 -190 -90 -265 -12 -41 -26 -85 -31
-98 -5 -13 -7 -28 -4 -33 4 -5 2 -9 -2 -9 -5 0 -9 -8 -10 -17 -2 -24 -7 -46
-14 -58 -4 -5 -5 -20 -4 -32 1 -13 -1 -23 -5 -23 -3 0 -7 -14 -8 -31 -1 -18
-6 -37 -9 -42 -4 -6 -8 -21 -9 -33 -3 -24 -11 -78 -18 -110 -2 -12 -7 -45 -11
-75 -4 -30 -8 -56 -10 -59 -2 -3 -6 -39 -10 -80 -4 -41 -9 -88 -11 -105 -10
-87 -17 -305 -18 -502 l-1 -223 -25 -1 c-14 0 -299 -1 -635 -2 l-610 -2 -3
-1250 -3 -1250 637 0 638 0 0 -3282 0 -3283 1733 0 c1154 0 1732 3 1728 10 -3
6 -2 10 2 10 5 0 8 27 8 60 0 33 -4 60 -8 60 -5 0 -5 6 -1 12 11 18 13 50 3
75 -5 12 -5 25 0 27 5 3 6 18 4 33 -5 31 -5 26 0 111 1 34 -1 62 -6 62 -4 0
-5 5 -2 11 11 16 12 69 2 69 -4 0 -5 6 -1 12 11 18 13 50 3 75 -5 12 -5 25 0
27 9 6 7 49 -4 65 -3 6 -3 11 2 11 10 0 8 143 -1 159 -4 6 -3 11 1 11 5 0 8
27 8 60 0 33 -4 60 -8 60 -5 0 -5 6 -1 12 11 18 13 50 3 75 -5 12 -5 25 0 27
9 6 7 49 -4 65 -3 6 -3 11 2 11 10 0 8 143 -1 159 -4 6 -3 11 1 11 5 0 8 27 8
60 0 33 -4 60 -8 60 -5 0 -5 6 -1 12 11 18 13 50 3 75 -5 12 -5 25 0 27 9 6 7
49 -4 65 -3 6 -3 11 2 11 10 0 8 143 -1 159 -4 6 -3 11 1 11 5 0 8 27 8 60 0
33 -4 60 -8 60 -5 0 -5 6 -1 12 11 18 13 50 3 75 -5 12 -5 25 0 27 9 6 7 49
-4 65 -3 6 -3 11 2 11 10 0 8 143 -1 159 -4 6 -3 11 1 11 5 0 8 27 8 60 0 33
-4 60 -8 60 -5 0 -5 6 -1 12 11 18 13 50 3 75 -5 12 -5 25 0 27 9 6 7 49 -4
65 -3 6 -3 11 2 11 9 0 9 132 -1 148 -3 6 -2 13 2 16 5 3 7 18 5 33 -5 31 -5
26 0 111 1 34 -1 62 -6 62 -4 0 -5 5 -1 12 10 16 11 1348 1 1348 -5 0 -5 6 -1
12 11 18 13 50 3 75 -5 12 -5 25 0 27 9 6 7 49 -4 65 -3 6 -3 11 2 11 10 0 8
143 -1 159 -4 6 -3 11 1 11 5 0 8 27 8 60 0 33 -4 60 -8 60 -5 0 -5 6 -1 12
11 18 13 50 3 75 -5 12 -5 25 0 27 9 6 7 49 -4 65 -3 6 -3 11 2 11 10 0 8 143
-1 159 -4 6 -3 11 1 11 5 0 8 27 8 60 0 33 -4 60 -8 60 -5 0 -5 6 -1 12 11 18
13 50 3 75 -5 12 -5 25 0 27 9 6 7 49 -4 65 -3 6 -3 11 2 11 10 0 8 143 -1
159 -4 6 -3 11 1 11 5 0 8 27 8 60 0 33 -4 60 -8 60 -5 0 -5 6 -1 12 11 18 13
50 3 75 -5 12 -5 25 0 27 9 6 7 49 -4 65 -3 6 -3 11 2 11 10 0 8 143 -1 159
-4 6 -3 11 1 11 5 0 8 27 8 60 0 33 -4 60 -8 60 -5 0 -5 6 -1 12 12 19 12 48
0 48 -7 0 -7 3 -1 8 12 8 14 132 2 132 -4 0 -4 7 1 16 5 9 7 25 5 35 -5 18 21
19 747 16 l752 -2 0 -2025 c-1 -1114 -1 -2028 -2 -2032 0 -5 -265 -8 -588 -8
l-589 0 1 -202 c1 -112 -2 -211 -7 -220 -4 -10 -4 -18 0 -18 5 0 7 -19 6 -42
-4 -61 -4 -59 0 -110 2 -27 0 -48 -4 -48 -4 0 -4 -12 0 -27 6 -25 7 -89 1
-103 -1 -3 -1 -9 0 -15 6 -30 5 -95 -1 -95 -4 0 -4 -12 0 -27 9 -32 8 -63 -3
-81 -4 -6 -4 -12 1 -12 4 0 8 -99 8 -220 0 -121 -4 -220 -8 -220 -5 0 -5 -5
-2 -10 9 -15 12 -111 3 -116 -4 -3 -4 -15 0 -27 9 -25 8 -59 -2 -76 -4 -6 -3
-11 1 -11 9 0 10 -77 0 -86 -3 -3 -2 -16 2 -28 6 -18 7 -82 1 -96 -1 -3 -1 -9
0 -15 6 -29 4 -175 -3 -175 -5 0 -5 -5 -2 -10 9 -15 12 -111 3 -116 -4 -3 -4
-15 0 -27 9 -25 8 -59 -2 -76 -4 -6 -3 -11 1 -11 9 0 10 -77 0 -86 -3 -3 -2
-16 3 -28 4 -13 8 -31 7 -42 -2 -19 44 -19 2426 -21 l2427 -2 0 1249 0 1250
-554 2 c-304 2 -569 0 -589 -3 l-36 -6 -1 121 c0 67 -1 132 0 146 0 14 -1 41
-1 60 -1 19 -1 41 0 48 1 6 1 19 1 27 0 8 0 23 0 33 0 9 0 33 -1 52 -1 19 -1
41 0 48 1 16 2 70 2 135 -1 28 0 71 2 94 1 22 -2 39 -7 36 -5 -4 -6 0 -1 7 4
7 7 49 6 94 -2 95 -3 85 1 163 2 34 -1 59 -6 56 -5 -4 -6 -1 -2 6 5 7 8 38 7
69 -1 115 -1 168 2 209 1 22 -2 39 -7 36 -5 -4 -6 0 -1 7 4 7 7 49 6 94 -2 95
-3 85 1 163 2 34 -1 59 -6 56 -5 -4 -6 -1 -2 6 5 7 8 38 7 69 -1 115 -1 168 2
209 1 22 -2 39 -7 36 -5 -4 -6 0 -1 7 4 7 7 49 6 94 -2 95 -3 85 1 163 2 34
-1 59 -6 56 -5 -4 -6 -1 -2 6 5 7 8 38 7 69 -1 115 -1 168 2 209 1 22 -2 39
-7 36 -5 -4 -6 0 -1 7 4 7 7 49 6 94 -2 95 -3 85 1 163 2 34 -1 59 -6 56 -5
-4 -6 -1 -2 6 5 7 8 38 7 69 -1 115 -1 168 2 209 1 22 -2 39 -7 36 -5 -4 -6 0
-1 7 4 7 7 49 6 94 -2 95 -3 85 1 163 2 34 -1 59 -6 56 -5 -4 -6 -1 -2 6 5 7
8 38 7 69 -1 115 -1 168 2 209 1 22 -2 39 -7 36 -5 -4 -6 0 -1 7 4 7 7 49 6
94 -2 95 -3 85 1 163 2 34 -1 59 -6 56 -5 -4 -6 -1 -2 6 5 7 8 38 7 69 -1 115
-1 168 2 209 1 22 -2 39 -7 36 -5 -4 -6 0 -1 7 4 7 7 49 6 94 -2 95 -3 85 1
163 2 34 -1 59 -6 56 -5 -4 -6 -1 -2 6 5 7 8 38 7 69 -1 115 -1 168 2 209 1
22 -2 39 -7 36 -5 -4 -6 0 -1 7 4 7 7 49 6 94 -2 95 -3 85 1 163 2 34 -1 59
-6 56 -5 -4 -6 -1 -2 6 5 7 8 38 7 69 -1 115 -1 168 2 209 1 22 -2 39 -7 36
-5 -4 -6 0 -1 7 4 7 7 49 6 94 -2 95 -3 85 1 163 2 34 -1 59 -6 56 -5 -4 -6
-1 -2 6 7 12 8 37 6 184 -1 33 1 61 3 64 3 2 1 18 -3 34 -5 18 -5 29 1 29 6 0
8 4 5 9 -4 6 -805 9 -1994 10 -1093 0 -1992 0 -1998 1 -7 0 -12 15 -12 33 -5
199 -4 415 0 423 3 5 2 18 -2 29 -4 11 -3 30 1 43 5 13 11 45 14 70 4 49 10
81 20 112 3 10 8 29 11 42 3 13 6 28 8 33 3 16 27 88 33 105 4 8 7 17 8 20 1
3 8 19 15 35 7 17 14 32 14 35 4 15 80 157 92 171 8 8 14 19 14 23 0 6 61 90
110 150 49 60 146 145 229 199 96 64 169 103 184 99 4 -1 7 2 7 8 0 6 3 9 8 8
4 0 14 1 22 4 24 9 103 30 125 33 114 18 124 19 325 30 162 10 480 10 605 0
50 -3 115 -8 145 -10 30 -2 55 -5 55 -5 0 -1 21 -3 48 -5 26 -2 53 -5 61 -8
10 -4 18 4 25 24 6 17 6 29 1 29 -5 0 -7 7 -4 15 9 24 10 225 1 225 -4 0 -4 8
0 18 10 20 9 64 -1 81 -4 6 -4 11 1 11 4 0 8 47 8 105 0 58 -4 105 -8 105 -5
0 -5 5 -2 11 12 18 13 59 1 59 -7 0 -7 3 -1 8 6 4 10 21 10 37 0 17 -4 33 -10
37 -7 5 -7 8 0 8 6 0 10 16 10 35 0 19 -4 35 -10 35 -7 0 -7 3 0 8 6 4 10 21
10 37 0 17 -4 33 -10 37 -7 5 -7 8 0 8 6 0 10 47 10 120 0 66 -3 120 -7 120
-4 0 -5 7 -2 15 9 22 10 225 2 225 -4 0 -5 7 -2 15 11 27 10 215 -1 215 -7 0
-7 3 0 8 6 4 10 21 10 37 0 17 -4 33 -10 37 -7 5 -7 8 0 8 6 0 10 16 10 35 0
19 -4 35 -10 35 -7 0 -7 3 0 8 6 4 10 21 10 37 0 17 -4 33 -10 37 -7 5 -7 8 0
8 11 0 11 82 0 99 -3 6 -3 11 2 11 4 0 8 47 8 105 0 58 -4 105 -8 105 -4 0 -4
8 0 18 10 20 9 64 -1 81 -4 6 -4 11 1 11 6 0 8 92 4 166 -1 9 -72 26 -166 38
-16 3 -30 5 -30 6 0 1 -16 3 -35 4 -19 2 -69 6 -110 10 -41 4 -97 9 -125 12
-52 6 -771 14 -777 9z"/>
</g>
</svg>
