<?xml version="1.0" encoding="UTF-8" standalone="no"?>
<!-- Created with Inkscape (http://www.inkscape.org/) -->

<svg
   width="1897.0621"
   height="470.10522"
   viewBox="0 0 1897.0621 470.10523"
   version="1.1"
   id="svg6042"
   xml:space="preserve"
   inkscape:version="1.2.2 (732a01da63, 2022-12-09)"
   sodipodi:docname="esewa-tm-fit-fix.svg"
   xmlns:inkscape="http://www.inkscape.org/namespaces/inkscape"
   xmlns:sodipodi="http://sodipodi.sourceforge.net/DTD/sodipodi-0.dtd"
   xmlns="http://www.w3.org/2000/svg"
   xmlns:svg="http://www.w3.org/2000/svg"><sodipodi:namedview
     id="namedview6044"
     pagecolor="#505050"
     bordercolor="#ffffff"
     borderopacity="1"
     inkscape:showpageshadow="true"
     inkscape:pageopacity="0"
     inkscape:pagecheckerboard="1"
     inkscape:deskcolor="#505050"
     inkscape:document-units="px"
     showgrid="false"
     inkscape:zoom="0.6078967"
     inkscape:cx="881.72875"
     inkscape:cy="246.75245"
     inkscape:window-width="1920"
     inkscape:window-height="1057"
     inkscape:window-x="-8"
     inkscape:window-y="-8"
     inkscape:window-maximized="1"
     inkscape:current-layer="text257" /><defs
     id="defs6039"><linearGradient
       id="linearGradient5470"
       inkscape:swatch="solid"><stop
         style="stop-color:#1a1a1a;stop-opacity:1;"
         offset="0"
         id="stop5468" /></linearGradient><inkscape:path-effect
       effect="bspline"
       id="path-effect6212"
       is_visible="true"
       lpeversion="1"
       weight="33.333333"
       steps="2"
       helper_size="0"
       apply_no_weight="true"
       apply_with_weight="true"
       only_selected="false" /><inkscape:path-effect
       effect="bspline"
       id="path-effect6208"
       is_visible="true"
       lpeversion="1"
       weight="33.333333"
       steps="2"
       helper_size="0"
       apply_no_weight="true"
       apply_with_weight="true"
       only_selected="false" /><inkscape:perspective
       sodipodi:type="inkscape:persp3d"
       inkscape:vp_x="0 : -529.89478 : 1"
       inkscape:vp_y="0 : 1000 : 0"
       inkscape:vp_z="2000 : -529.89478 : 1"
       inkscape:persp3d-origin="999.99998 : -863.22811 : 1"
       id="perspective6194" /><inkscape:path-effect
       effect="bspline"
       id="path-effect6192"
       is_visible="true"
       lpeversion="1"
       weight="33.333333"
       steps="2"
       helper_size="0"
       apply_no_weight="true"
       apply_with_weight="true"
       only_selected="false" /><inkscape:path-effect
       effect="bspline"
       id="path-effect6188"
       is_visible="true"
       lpeversion="1"
       weight="33.333333"
       steps="2"
       helper_size="0"
       apply_no_weight="true"
       apply_with_weight="true"
       only_selected="false" /></defs><g
     inkscape:groupmode="layer"
     id="layer3"
     inkscape:label="Final"
     style="display:inline;opacity:1"
     transform="translate(-7.7441406,-711.50977)"><path
       id="path1067"
       style="display:inline;opacity:1;fill:#00a400;fill-opacity:1;stroke-width:0.937488"
       d="M 255.78452,711.50977 A 248.04038,234.00024 0 0 0 7.7441406,945.51001 248.04038,234.00024 0 0 0 255.78452,1179.5098 248.04038,234.00024 0 0 0 502.58921,967.786 h -98.49054 v -47.34668 h 98.2876 A 248.04038,234.00024 0 0 0 255.78452,711.50977 Z"
       inkscape:label="circle" /><g
       aria-label="soft"
       id="text257"
       style="font-size:408px;letter-spacing:-12px;display:inline;opacity:1;fill:#2a2f36;fill-opacity:1"
       inkscape:label="sewa"
       transform="matrix(0.99865568,0,0,0.99865568,0.58380225,1.1712312)"><path
         d="m 753.06276,1182.0328 c 83.82,0 129.54,-64.135 129.54,-139.065 0,-41.91 -11.43,-66.67499 -27.94,-86.35999 -22.86,-27.94 -58.42,-38.735 -102.235,-52.705 -18.415,-5.715 -53.975,-19.685 -72.39,-38.1 -15.875,-16.51 -19.685,-37.465 -19.685,-55.245 0,-32.385 20.32,-74.295 76.835,-74.295 29.845,0 52.07,8.89 69.215,27.305 26.035,27.305 34.29,52.07 39.37,70.485 0.635,1.905 1.905,2.54 3.81,1.905 l 7.62,-1.905 c 2.54,-0.635 3.175,-1.905 3.175,-5.08 -0.635,-13.97 -8.89,-78.74 -8.89,-100.965 0,-5.715 -1.905,-10.795 -5.08,-10.795 -3.175,0 -5.08,1.27 -8.255,3.81 l -8.255,7.62 c -3.175,3.175 -6.35,3.81 -12.065,0.635 -10.795,-5.08 -38.735,-15.875 -74.93,-15.875 -34.29,0 -66.04,8.89 -88.9,30.48 -19.685,18.415 -39.37,49.53 -39.37,81.28 0,41.91 10.795,71.755 31.75,92.71 27.305,28.575 73.025,44.45 92.71,51.435 50.8,17.78 97.79,41.90999 97.79,107.31499 0,57.15 -48.26,80.645 -86.36,80.645 -34.925,0 -69.85,-17.145 -88.9,-46.99 -20.955,-32.385 -22.225,-53.34 -22.86,-73.66 0,-3.81 -1.27,-5.08 -3.81,-5.08 l -9.525,-0.635 c -2.54,0 -3.81,0 -4.445,3.81 -1.905,18.415 -8.255,99.06 -10.795,114.935 -1.27,6.985 1.905,10.16 5.715,10.16 4.445,0 7.62,-0.635 11.43,-7.62 3.81,-6.35 6.35,-10.795 10.16,-10.795 3.175,0 6.985,1.905 14.605,7.62 25.4,19.685 56.515,33.02 100.965,33.02 z"
         style="font-size:635px;font-family:'Adobe Caslon Pro';-inkscape-font-specification:'Adobe Caslon Pro';letter-spacing:0px;display:inline;opacity:1;fill:#7e8388;fill-opacity:1;stroke-width:1.00157"
         id="path1533" /><path
         d="m 1155.0176,1003.5978 c 10.16,0 17.78,-1.27 17.78,-10.15999 0,-24.765 -20.32,-93.345 -93.345,-93.345 -31.75,0 -63.5,5.715 -90.80502,33.655 -33.655,33.655 -40.005,76.19999 -40.005,100.96499 0,44.45 5.715,67.945 27.94,100.33 23.49502,34.29 63.50002,45.085 99.69502,45.085 56.515,0 89.535,-43.815 100.965,-69.215 3.175,-6.985 1.905,-8.89 0,-9.525 l -8.255,-4.445 c -1.905,-0.635 -4.445,0.635 -5.715,3.175 -10.795,20.955 -38.1,43.18 -76.835,43.18 -50.8,0 -90.17002,-46.99 -90.17002,-109.22 0,-14.605 0.635,-24.765 1.905,-30.48 z m -154.305,-19.04999 c 12.065,-46.99 38.735,-65.405 66.675,-65.405 41.275,0 48.895,41.91 48.895,56.515 0,5.715 -5.08,8.89 -17.145,8.89 z"
         style="font-size:635px;font-family:'Adobe Caslon Pro';-inkscape-font-specification:'Adobe Caslon Pro';letter-spacing:0px;display:inline;opacity:1;fill:#7e8388;fill-opacity:1;stroke-width:1.00157"
         id="path1535" /><path
         d="m 1465.5331,948.98781 c -2.54,-9.525 2.54,-16.51 8.89,-16.51 h 13.335 c 3.175,0 4.445,-1.905 4.445,-5.08 v -13.335 c 0,-3.175 -1.27,-4.445 -5.715,-4.445 -5.08,0 -19.05,1.905 -48.26,1.905 -31.75,0 -52.07,-1.905 -57.15,-1.905 -3.81,0 -5.715,1.27 -5.715,5.08 v 13.335 c 0,3.175 1.27,4.445 4.445,4.445 h 9.525 c 8.89,0 13.97,1.905 17.145,6.35 3.81,5.08 4.445,10.16 5.715,20.32 l -64.77,154.93999 h -2.54 l -50.165,-168.27499 c -3.81,-11.43 0.635,-17.145 7.62,-17.145 h 5.715 c 4.445,0 5.08,-1.905 5.08,-5.08 v -12.7 c 0,-3.81 -1.27,-5.08 -5.08,-5.08 -9.525,0 -24.765,1.905 -53.34,1.905 -36.195,0 -48.895,-1.905 -57.785,-1.905 -3.175,0 -3.81,1.905 -3.81,5.08 v 12.065 c 0,3.81 0.635,5.715 4.445,5.715 h 13.97 c 15.24,0 22.225,5.08 26.67,17.145 l 83.185,223.51999 c 2.54,7.62 5.715,12.7 10.795,12.7 5.08,0 10.16,-2.54 13.335,-10.16 l 78.105,-182.87999 h 3.175 l 62.23,180.97499 c 2.54,7.62 6.985,12.065 11.43,12.065 5.08,0 9.525,-1.27 12.065,-8.255 8.255,-20.32 88.9,-222.24999 96.52,-234.31499 3.81,-5.715 12.7,-10.795 20.32,-10.795 h 15.875 c 3.175,0 4.445,-1.905 4.445,-5.08 v -13.335 c 0,-2.54 -1.27,-4.445 -4.445,-4.445 -7.62,0 -19.05,1.905 -46.355,1.905 -26.035,0 -45.085,-1.905 -48.895,-1.905 -2.54,0 -4.445,1.27 -4.445,4.445 v 13.335 c 0,3.175 0.635,5.08 3.81,5.08 h 8.89 c 12.7,0 17.78,12.7 9.525,34.925 l -51.435,139.69999 h -2.54 z"
         style="font-size:635px;font-family:'Adobe Caslon Pro';-inkscape-font-specification:'Adobe Caslon Pro';letter-spacing:0px;display:inline;opacity:1;fill:#7e8388;fill-opacity:1;stroke-width:1.00157"
         id="path1537" /><path
         d="m 1850.9786,1059.4778 v -97.15499 c 0,-17.145 -0.635,-31.75 -13.97,-45.085 -8.89,-8.255 -20.955,-17.145 -50.8,-17.145 -28.575,0 -50.8,6.35 -77.47,22.225 -26.035,15.24 -43.815,39.37 -43.815,59.69 0,14.605 5.08,20.31999 15.24,20.31999 26.035,0 33.655,-13.96999 33.655,-36.19499 0,-11.43 -5.715,-20.955 3.175,-29.21 8.89,-8.255 28.575,-13.335 41.275,-13.335 18.415,0 31.115,5.715 38.1,13.97 6.985,8.255 7.62,24.765 8.89,35.56 v 40.63999 c -10.16,8.89 -43.18,24.13 -71.755,36.83 -50.165,22.225 -63.5,47.625 -63.5,76.835 0,40.005 22.86,52.705 38.1,52.705 13.97,0 25.4,0 37.465,-3.81 28.575,-9.525 49.53,-22.86 62.865,-38.735 h 1.27 c 5.715,26.035 22.225,42.545 45.085,42.545 32.385,0 44.45,-21.59 49.53,-31.115 3.81,-6.35 2.54,-9.525 0.635,-11.43 l -6.35,-5.08 c -2.54,-1.905 -3.81,-0.635 -6.35,2.54 -3.175,4.445 -12.065,9.525 -22.225,9.525 -11.43,0 -19.05,-11.43 -19.05,-47.625 z m -46.355,51.435 c 0,17.145 -33.655,39.37 -52.07,39.37 -19.05,0 -33.02,-11.43 -33.02,-34.925 0,-52.705 62.23,-65.405 85.09,-82.55 z"
         style="font-size:635px;font-family:'Adobe Caslon Pro';-inkscape-font-specification:'Adobe Caslon Pro';letter-spacing:0px;display:inline;opacity:1;fill:#7e8388;fill-opacity:1;stroke-width:1.00157"
         id="path1539" /></g><g
       aria-label="e"
       transform="matrix(0.96800365,-0.14406034,0.15421134,0.88210758,0.49561137,45.535362)"
       id="text1039"
       style="font-size:700.323px;font-family:'Adobe Caslon Pro';-inkscape-font-specification:'Adobe Caslon Pro';display:inline;opacity:0.9;fill:#ff0000;stroke-width:1.0469"
       inkscape:label="E"><path
         d="m 179.33148,999.85239 c 11.20517,0 19.60904,-1.40065 19.60904,-11.20517 0,-27.3126 -22.41033,-102.94748 -102.947479,-102.94748 -35.01615,0 -70.0323,6.30291 -100.1461889,37.11712 -37.1171191,37.11712 -44.1203491,84.03874 -44.1203491,111.35134 0,49.0226 6.302907,74.9346 30.814212,110.651 25.9119511,37.8175 70.0323,49.723 109.950711,49.723 62.328744,0 98.745544,-48.3223 111.351354,-76.3352 3.50162,-7.7036 2.10097,-9.8045 0,-10.5049 l -9.1042,-4.9022 c -2.10097,-0.7004 -4.90226,0.7003 -6.3029,3.5016 -11.90549,23.1106 -42.01938,47.6219 -84.73909,47.6219 -56.025836,0 -99.4458619,-51.8239 -99.4458619,-120.4555 0,-16.1074 0.700323,-27.3126 2.100969,-33.61551 z M 9.1529891,978.8427 C 22.459126,927.0188 51.872692,906.70943 82.686904,906.70943 c 45.520996,0 53.924866,46.22132 53.924866,62.32875 0,6.3029 -5.60258,9.80452 -18.90872,9.80452 z"
         id="path1542"
         style="fill:#ffffff" /></g></g></svg>
