<svg width="1897.1" height="470.11" version="1.1" viewBox="0 0 1897.1 470.11" xml:space="preserve" xmlns="http://www.w3.org/2000/svg"><g transform="translate(-7.7441 -711.51)"><path d="m255.78 711.51a248.04 234 0 0 0-248.04 234 248.04 234 0 0 0 248.04 234 248.04 234 0 0 0 246.8-211.72h-98.491v-47.347h98.288a248.04 234 0 0 0-246.6-208.93z" fill="#00a400" stroke-width=".93749"/><g transform="matrix(.99866 0 0 .99866 .5838 1.1712)" fill="#ffffff" stroke-width="1.0016" aria-label="soft"><path d="m753.06 1182c83.82 0 129.54-64.135 129.54-139.06 0-41.91-11.43-66.675-27.94-86.36-22.86-27.94-58.42-38.735-102.24-52.705-18.415-5.715-53.975-19.685-72.39-38.1-15.875-16.51-19.685-37.465-19.685-55.245 0-32.385 20.32-74.295 76.835-74.295 29.845 0 52.07 8.89 69.215 27.305 26.035 27.305 34.29 52.07 39.37 70.485 0.635 1.905 1.905 2.54 3.81 1.905l7.62-1.905c2.54-0.635 3.175-1.905 3.175-5.08-0.635-13.97-8.89-78.74-8.89-100.96 0-5.715-1.905-10.795-5.08-10.795s-5.08 1.27-8.255 3.81l-8.255 7.62c-3.175 3.175-6.35 3.81-12.065 0.635-10.795-5.08-38.735-15.875-74.93-15.875-34.29 0-66.04 8.89-88.9 30.48-19.685 18.415-39.37 49.53-39.37 81.28 0 41.91 10.795 71.755 31.75 92.71 27.305 28.575 73.025 44.45 92.71 51.435 50.8 17.78 97.79 41.91 97.79 107.31 0 57.15-48.26 80.645-86.36 80.645-34.925 0-69.85-17.145-88.9-46.99-20.955-32.385-22.225-53.34-22.86-73.66 0-3.81-1.27-5.08-3.81-5.08l-9.525-0.635c-2.54 0-3.81 0-4.445 3.81-1.905 18.415-8.255 99.06-10.795 114.94-1.27 6.985 1.905 10.16 5.715 10.16 4.445 0 7.62-0.635 11.43-7.62 3.81-6.35 6.35-10.795 10.16-10.795 3.175 0 6.985 1.905 14.605 7.62 25.4 19.685 56.515 33.02 100.96 33.02z"/><path d="m1155 1003.6c10.16 0 17.78-1.27 17.78-10.16 0-24.765-20.32-93.345-93.345-93.345-31.75 0-63.5 5.715-90.805 33.655-33.655 33.655-40.005 76.2-40.005 100.96 0 44.45 5.715 67.945 27.94 100.33 23.495 34.29 63.5 45.085 99.695 45.085 56.515 0 89.535-43.815 100.96-69.215 3.175-6.985 1.905-8.89 0-9.525l-8.255-4.445c-1.905-0.635-4.445 0.635-5.715 3.175-10.795 20.955-38.1 43.18-76.835 43.18-50.8 0-90.17-46.99-90.17-109.22 0-14.605 0.635-24.765 1.905-30.48zm-154.3-19.05c12.065-46.99 38.735-65.405 66.675-65.405 41.275 0 48.895 41.91 48.895 56.515 0 5.715-5.08 8.89-17.145 8.89z"/><path d="m1465.5 948.99c-2.54-9.525 2.54-16.51 8.89-16.51h13.335c3.175 0 4.445-1.905 4.445-5.08v-13.335c0-3.175-1.27-4.445-5.715-4.445-5.08 0-19.05 1.905-48.26 1.905-31.75 0-52.07-1.905-57.15-1.905-3.81 0-5.715 1.27-5.715 5.08v13.335c0 3.175 1.27 4.445 4.445 4.445h9.525c8.89 0 13.97 1.905 17.145 6.35 3.81 5.08 4.445 10.16 5.715 20.32l-64.77 154.94h-2.54l-50.165-168.27c-3.81-11.43 0.635-17.145 7.62-17.145h5.715c4.445 0 5.08-1.905 5.08-5.08v-12.7c0-3.81-1.27-5.08-5.08-5.08-9.525 0-24.765 1.905-53.34 1.905-36.195 0-48.895-1.905-57.785-1.905-3.175 0-3.81 1.905-3.81 5.08v12.065c0 3.81 0.635 5.715 4.445 5.715h13.97c15.24 0 22.225 5.08 26.67 17.145l83.185 223.52c2.54 7.62 5.715 12.7 10.795 12.7s10.16-2.54 13.335-10.16l78.105-182.88h3.175l62.23 180.97c2.54 7.62 6.985 12.065 11.43 12.065 5.08 0 9.525-1.27 12.065-8.255 8.255-20.32 88.9-222.25 96.52-234.31 3.81-5.715 12.7-10.795 20.32-10.795h15.875c3.175 0 4.445-1.905 4.445-5.08v-13.335c0-2.54-1.27-4.445-4.445-4.445-7.62 0-19.05 1.905-46.355 1.905-26.035 0-45.085-1.905-48.895-1.905-2.54 0-4.445 1.27-4.445 4.445v13.335c0 3.175 0.635 5.08 3.81 5.08h8.89c12.7 0 17.78 12.7 9.525 34.925l-51.435 139.7h-2.54z"/><path d="m1851 1059.5v-97.155c0-17.145-0.635-31.75-13.97-45.085-8.89-8.255-20.955-17.145-50.8-17.145-28.575 0-50.8 6.35-77.47 22.225-26.035 15.24-43.815 39.37-43.815 59.69 0 14.605 5.08 20.32 15.24 20.32 26.035 0 33.655-13.97 33.655-36.195 0-11.43-5.715-20.955 3.175-29.21s28.575-13.335 41.275-13.335c18.415 0 31.115 5.715 38.1 13.97s7.62 24.765 8.89 35.56v40.64c-10.16 8.89-43.18 24.13-71.755 36.83-50.165 22.225-63.5 47.625-63.5 76.835 0 40.005 22.86 52.705 38.1 52.705 13.97 0 25.4 0 37.465-3.81 28.575-9.525 49.53-22.86 62.865-38.735h1.27c5.715 26.035 22.225 42.545 45.085 42.545 32.385 0 44.45-21.59 49.53-31.115 3.81-6.35 2.54-9.525 0.635-11.43l-6.35-5.08c-2.54-1.905-3.81-0.635-6.35 2.54-3.175 4.445-12.065 9.525-22.225 9.525-11.43 0-19.05-11.43-19.05-47.625zm-46.355 51.435c0 17.145-33.655 39.37-52.07 39.37-19.05 0-33.02-11.43-33.02-34.925 0-52.705 62.23-65.405 85.09-82.55z"/></g><g transform="matrix(.968 -.14406 .15421 .88211 .49561 45.535)" fill="#f00" opacity=".9" stroke-width="1.0469" aria-label="e"><path d="m179.33 999.85c11.205 0 19.609-1.4006 19.609-11.205 0-27.313-22.41-102.95-102.95-102.95-35.016 0-70.032 6.3029-100.15 37.117-37.117 37.117-44.12 84.039-44.12 111.35 0 49.023 6.3029 74.935 30.814 110.65 25.912 37.818 70.032 49.723 109.95 49.723 62.329 0 98.746-48.322 111.35-76.335 3.5016-7.7036 2.101-9.8045 0-10.505l-9.1042-4.9022c-2.101-0.7004-4.9023 0.7003-6.3029 3.5016-11.905 23.111-42.019 47.622-84.739 47.622-56.026 0-99.446-51.824-99.446-120.46 0-16.107 0.70032-27.313 2.101-33.616zm-170.18-21.01c13.306-51.824 42.72-72.133 73.534-72.133 45.521 0 53.925 46.221 53.925 62.329 0 6.3029-5.6026 9.8045-18.909 9.8045z" fill="#fff"/></g></g></svg>
