<?xml version="1.0" encoding="UTF-8" standalone="no"?>
<!-- Created with Inkscape (http://www.inkscape.org/) -->

<svg
   width="2000"
   height="2000"
   viewBox="0 0 2000 2000"
   version="1.1"
   id="svg6042"
   xml:space="preserve"
   inkscape:version="1.2.2 (732a01da63, 2022-12-09)"
   sodipodi:docname="final-noncircle.svg"
   xmlns:inkscape="http://www.inkscape.org/namespaces/inkscape"
   xmlns:sodipodi="http://sodipodi.sourceforge.net/DTD/sodipodi-0.dtd"
   xmlns="http://www.w3.org/2000/svg"
   xmlns:svg="http://www.w3.org/2000/svg"><sodipodi:namedview
     id="namedview6044"
     pagecolor="#505050"
     bordercolor="#ffffff"
     borderopacity="1"
     inkscape:showpageshadow="true"
     inkscape:pageopacity="0"
     inkscape:pagecheckerboard="1"
     inkscape:deskcolor="#505050"
     inkscape:document-units="px"
     showgrid="false"
     inkscape:zoom="0.30394835"
     inkscape:cx="1000.1699"
     inkscape:cy="1065.9706"
     inkscape:window-width="1904"
     inkscape:window-height="1041"
     inkscape:window-x="-2"
     inkscape:window-y="5"
     inkscape:window-maximized="0"
     inkscape:current-layer="layer3" /><defs
     id="defs6039"><linearGradient
       id="linearGradient5470"
       inkscape:swatch="solid"><stop
         style="stop-color:#1a1a1a;stop-opacity:1;"
         offset="0"
         id="stop5468" /></linearGradient><inkscape:path-effect
       effect="bspline"
       id="path-effect6212"
       is_visible="true"
       lpeversion="1"
       weight="33.333333"
       steps="2"
       helper_size="0"
       apply_no_weight="true"
       apply_with_weight="true"
       only_selected="false" /><inkscape:path-effect
       effect="bspline"
       id="path-effect6208"
       is_visible="true"
       lpeversion="1"
       weight="33.333333"
       steps="2"
       helper_size="0"
       apply_no_weight="true"
       apply_with_weight="true"
       only_selected="false" /><inkscape:perspective
       sodipodi:type="inkscape:persp3d"
       inkscape:vp_x="0 : 1000 : 1"
       inkscape:vp_y="0 : 1000 : 0"
       inkscape:vp_z="2000 : 1000 : 1"
       inkscape:persp3d-origin="1000 : 666.66667 : 1"
       id="perspective6194" /><inkscape:path-effect
       effect="bspline"
       id="path-effect6192"
       is_visible="true"
       lpeversion="1"
       weight="33.333333"
       steps="2"
       helper_size="0"
       apply_no_weight="true"
       apply_with_weight="true"
       only_selected="false" /><inkscape:path-effect
       effect="bspline"
       id="path-effect6188"
       is_visible="true"
       lpeversion="1"
       weight="33.333333"
       steps="2"
       helper_size="0"
       apply_no_weight="true"
       apply_with_weight="true"
       only_selected="false" /></defs><g
     inkscape:groupmode="layer"
     id="layer3"
     inkscape:label="Final"
     style="display:inline;opacity:1"><path
       style="display:inline;opacity:1;fill:#ffffff"
       d="m 188,678 -0.38582,251.39856 v 0 L 188,928 h 624 v 407 H 694 v 250 h 486 V 1335 H 1062 V 678 Z"
       id="path672"
       sodipodi:nodetypes="ccccccccccccc" /><path
       d="m 594.50816,1033.3517 v 731.5862 H 282.8853 V 1033.3517 754.97029 c 0,0 -0.25601,-47.23246 1.16562,-71.87482 8.12518,-129.60638 53.01215,-217.24317 103.6098,-277.76256 68.17715,-68.38369 128.58281,-97.71305 193.31552,-110.65576 51.62947,-11.55888 146.38726,-20.42867 209.30652,-5.16052 V 567.898 c -42.53332,-4.65036 -49.47992,-5.07227 -84.14759,-3.20587 -36.08835,1.94288 -44.85196,6.28862 -67.81099,26.19294 -28.39811,29.17426 -41.23073,72.58471 -43.81602,106.05657 -0.92331,16.98595 0,58.02865 0,58.02865 z"
       id="path460"
       sodipodi:nodetypes="ccccccccccscccc"
       style="font-size:2082.02px;font-family:'Circular Std Black';-inkscape-font-specification:'Circular Std Black, ';display:inline;opacity:1;fill:#ffffff;stroke-width:1.13155"
       transform="scale(1.1135255,0.89804859)" /><g
       aria-label="soft"
       id="text257"
       style="font-size:408px;letter-spacing:-12px;display:inline;opacity:1;fill:#2a2f36;fill-opacity:1"
       inkscape:label="soft"><path
         d="m 1108.6897,1230.1824 52.632,-9.384 q 0.816,11.424 8.568,19.584 8.16,7.752 23.256,7.752 11.424,0 17.544,-4.896 6.12,-5.304 6.12,-12.648 0,-12.24 -19.992,-16.728 l -23.256,-5.304 q -31.008,-6.528 -45.696,-22.848 -14.688,-16.728 -14.688,-39.576 0,-28.152 22.032,-47.736 22.44,-19.584 55.896,-19.584 39.576,0 59.16,19.176 19.992,18.768 22.032,41.208 l -51.408,9.384 q -1.224,-11.016 -8.568,-17.952 -6.936,-6.936 -20.4,-6.936 -8.976,0 -15.504,4.896 -6.528,4.896 -6.528,12.648 0,12.24 15.912,15.096 l 26.928,5.304 q 30.6,6.12 46.512,23.256 15.912,17.136 15.912,40.392 0,28.152 -21.216,48.552 -21.216,19.992 -59.568,19.992 -22.44,0 -39.984,-6.528 -17.136,-6.528 -26.52,-16.728 -8.976,-10.608 -13.872,-20.808 -4.488,-10.2 -5.304,-19.584 z"
         style="font-family:'Circular Std Black';-inkscape-font-specification:'Circular Std Black, ';fill:#b22222;fill-opacity:1"
         id="path693" /><path
         d="m 1396.1617,1236.7104 q 19.176,0 32.232,-13.056 13.464,-13.056 13.464,-37.536 0,-24.48 -13.464,-37.128 -13.056,-13.056 -32.232,-13.056 -18.768,0 -32.232,13.056 -13.464,13.056 -13.464,37.128 0,24.072 13.464,37.536 13.464,13.056 32.232,13.056 z m 0,-157.896 q 46.104,0 76.704,30.192 31.008,30.192 31.008,77.112 0,46.92 -31.008,77.52 -30.6,30.192 -76.704,30.192 -45.696,0 -76.704,-30.6 -31.008,-30.6 -31.008,-77.112 0,-46.512 31.008,-76.704 31.008,-30.6 76.704,-30.6 z"
         style="font-family:'Circular Std Black';-inkscape-font-specification:'Circular Std Black, ';fill:#2a2f36;fill-opacity:1"
         id="path695" /><path
         d="m 1647.3218,1137.1584 h -44.064 v 150.552 h -62.016 v -150.552 h -32.232 v -52.224 h 32.232 v -17.544 q 0,-35.496 20.4,-56.712 20.808,-21.62395 57.12,-21.62395 20.4,0 29.376,4.488 v 50.59195 q -8.16,-2.04 -18.36,-2.04 -10.608,0 -18.768,6.12 -7.752,6.12 -7.752,21.216 v 15.504 h 44.064 z"
         style="font-family:'Circular Std Black';-inkscape-font-specification:'Circular Std Black, ';fill:#2a2f36;fill-opacity:1"
         id="path697" /><path
         d="m 1755.274,1025.7744 v 59.16 h 39.576 v 54.264 h -39.576 v 75.888 q 0,21.216 22.44,21.216 7.344,0 16.32,-2.04 v 51.408 q -11.424,5.712 -32.232,5.712 -31.416,0 -49.776,-17.544 -17.952,-17.544 -17.952,-47.736 v -86.904 h -35.904 v -54.264 h 10.2 q 15.504,0 23.256,-8.976 8.16,-9.384 8.16,-24.072 v -26.112 z"
         style="font-family:'Circular Std Black';-inkscape-font-specification:'Circular Std Black, ';fill:#2a2f36;fill-opacity:1"
         id="path699" /></g></g></svg>
