<svg width="2e3" height="606.73" version="1.1" viewBox="0 0 2e3 606.73" xmlns="http://www.w3.org/2000/svg">
 <defs>
  <clipPath id="clipPath600">
   <path d="m0 188.32h360v-188.32h-360z"/>
  </clipPath>
 </defs>
 <g transform="matrix(6.9027 0 0 -6.9027 -227.05 977.49)">
  <g>
   <g transform="matrix(.99234 0 0 .99234 .25195 1.0847)" clip-path="url(#clipPath600)">
    <path d="m210.04 61.505c0-4.679-4.315-8.471-8.992-8.471h-160.21c-4.677 0-7.945 3.792-7.945 8.471v71.635c0 4.678 3.268 8.47 7.945 8.47h160.21c4.677 0 8.992-3.792 8.992-8.47z" fill="#cf2026"/>
    <g fill="#070c10">
     <path d="m234.97 83.59c-5.076 0-6.791 3.891-6.791 9.889 0 7.118 3.889 9.162 6.854 9.162 5.012 0 6.66-4.812 6.66-9.162 0-4.682-1.78-9.889-6.723-9.889m2.636 27.619c-4.022 0-7.184-1.648-9.427-4.943h-0.133v3.955h-10.677v-45.683h11.206v15.161h0.131c2.309-3.096 5.607-4.676 9.755-4.676 9.693 0 14.438 8.435 14.438 17.334 0 9.689-4.549 18.852-15.293 18.852"/>
     <path d="m270.29 81.942c-2.571 0-4.682 1.055-4.682 3.89 0 2.703 2.045 3.756 4.617 4.348 2.436 0.725 5.338 0.858 6.919 1.845 0.265-7.116-1.513-10.083-6.854-10.083m17.665 17.799c0 9.689-7.844 11.468-15.951 11.468-3.955 0-7.779-0.593-10.876-2.372-3.099-1.78-5.143-4.681-5.34-9.163h10.48c0.528 2.833 2.374 4.286 5.604 4.286 2.307 0 5.405-0.991 5.405-3.561 0-2.109-1.055-2.704-2.966-3.165-7.778-1.583-19.908-0.789-19.908-11.865 0-7.054 5.074-10.347 11.669-10.347 4.153 0 8.371 1.118 11.27 4.217 0.199-1.12 0.199-2.176 0.661-3.232h11.271c-1.319 2.705-1.319 5.87-1.319 8.769z"/>
     <path d="m313.4 110.22-6.46-22.279h-0.132l-6.46 22.279h-11.866l8.834-23.796c0.658-1.847 2.835-7.119 2.835-8.966 0-2.371-1.911-3.821-4.482-3.821h-3.89v-9.1h5.274c7.515 0 11.667 0.924 14.303 8.439l13.514 37.244z"/>
    </g>
    <g fill="#fff" fill-rule="evenodd">
     <path d="m157.04 91.216c0.351 2.109 1.154 3.73 2.409 4.862 1.257 1.129 3.016 1.694 5.279 1.694 1.907 0 3.476-0.64 4.708-1.921 1.23-1.282 1.846-2.826 1.846-4.635zm-65.004-7.649c-0.125-1.132-0.413-2.174-0.867-3.127-0.452-0.956-1.105-1.748-1.959-2.375-0.855-0.629-1.985-0.943-3.391-0.943s-2.537 0.314-3.391 0.943c-0.855 0.627-1.507 1.419-1.959 2.375-0.454 0.953-0.743 1.995-0.868 3.127-0.126 1.13-0.189 2.222-0.189 3.277 0 1.056 0.063 2.149 0.189 3.279 0.125 1.131 0.414 2.16 0.868 3.09 0.452 0.93 1.104 1.707 1.959 2.337 0.854 0.628 1.985 0.941 3.391 0.941s2.536-0.313 3.391-0.941c0.854-0.63 1.507-1.407 1.959-2.337 0.454-0.93 0.742-1.959 0.867-3.09 0.126-1.13 0.191-2.223 0.191-3.279 0-1.055-0.065-2.147-0.191-3.277m92.285 10.061c-0.855 2.964-2.185 5.463-3.993 7.498-1.81 2.034-4.121 3.581-6.934 4.636-2.817 1.055-6.155 1.583-10.026 1.583-3.114 0-5.941-0.542-8.477-1.622-2.538-1.08-4.71-2.563-6.52-4.446-1.311-1.365-2.4-2.891-3.276-4.572-0.177 1.188-0.476 2.275-0.904 3.253-0.729 1.658-1.723 3.027-2.978 4.107-1.258 1.081-2.688 1.897-4.297 2.45-1.607 0.553-3.291 0.83-5.049 0.83-3.015 0-5.54-0.504-7.573-1.508-2.037-1.005-3.758-2.486-5.162-4.448h-0.152v4.975h-14.396v-8.868c-0.716 1.309-1.579 2.521-2.599 3.63-1.734 1.885-3.944 3.391-6.633 4.521-2.687 1.131-5.867 1.698-9.533 1.698-3.669 0-6.846-0.567-9.534-1.698-2.12-0.89-3.937-2.019-5.463-3.379v4.096h-7.839c-0.101 1.809 0.188 3.039 0.867 3.694 0.678 0.652 1.922 0.978 3.731 0.978 0.603 0 1.206-0.063 1.81-0.188 0.602-0.126 1.203-0.238 1.807-0.34v10.25c-1.157 0.05-2.274 0.115-3.353 0.19-1.082 0.076-2.198 0.112-3.355 0.112-3.014 0-5.538-0.214-7.574-0.638-2.034-0.431-3.856-1.447-5.464-3.054-1.457-1.458-2.363-3.178-2.713-5.162-0.353-1.986-0.478-3.932-0.377-5.842h-6.104v-9.194h6.104v-29.921h14.922v29.921h3.592c-0.425-0.817-0.794-1.67-1.104-2.563-0.856-2.462-1.282-5.051-1.282-7.763 0-2.713 0.426-5.313 1.282-7.8 0.853-2.486 2.148-4.673 3.88-6.557 1.735-1.884 3.945-3.392 6.633-4.521 2.688-1.131 5.865-1.697 9.534-1.697 3.666 0 6.846 0.566 9.533 1.697 2.689 1.129 4.899 2.637 6.633 4.521 1.02 1.109 1.883 2.326 2.599 3.643v-8.881h14.923v20.651c0 1.554 0.189 2.826 0.566 3.805 0.376 0.981 0.854 1.746 1.43 2.3 0.578 0.552 1.219 0.928 1.923 1.13 0.703 0.199 1.38 0.301 2.035 0.301 1.105 0 1.971-0.188 2.6-0.566 0.629-0.377 1.118-0.904 1.47-1.581 0.351-0.679 0.578-1.497 0.679-2.449 0.1-0.957 0.152-1.987 0.152-3.092v-20.499h14.921v8.918c0.989-1.755 2.22-3.283 3.691-4.586 1.96-1.731 4.282-3.05 6.971-3.955 2.687-0.903 5.59-1.357 8.705-1.357 2.21 0 4.357 0.253 6.445 0.754 2.084 0.502 4.018 1.256 5.803 2.262 1.781 1.003 3.353 2.285 4.71 3.842 1.356 1.558 2.411 3.392 3.165 5.502h-13.867c-0.606-0.955-1.505-1.658-2.69-2.11-1.188-0.452-2.389-0.678-3.601-0.678-2.374 0-4.193 0.703-5.453 2.109-1.266 1.408-1.997 3.242-2.198 5.502h28.638c0 3.819-0.426 7.21-1.281 10.176"/>
     <path d="m180.76 122.02c-1.4402 0-2.6077-1.1675-2.6077-2.6077 2e-3 -1.2597 1.3109-2.3407 2.1402-2.563 6.1553-1.408 12.444-8.0794 13.92-14.189 0.31277-1.1673 1.4502-1.9608 2.5635-1.992 1.4402 0 2.6032 1.3667 2.6032 2.8069-1.511 8.5297-11.772 18.041-18.62 18.545z"/>
     <path d="m181.53 111.57c-1.4402 0-2.6077-1.1675-2.6077-2.6077 8.7e-4 -1.1464 0.75032-2.1578 1.8468-2.4922 1.5798-0.64459 2.7762-1.9929 3.2783-3.4384 0.41703-0.94372 1.3513-1.5528 2.383-1.5537 1.4402 0 2.6077 1.1675 2.6077 2.6077-2.3e-4 0.39917-0.0921 0.79297-0.26852 1.151-1.1903 2.6471-3.577 4.9639-6.1692 6.1149-0.33577 0.10394-0.7493 0.21563-1.0704 0.21844z"/>
    </g>
   </g>
  </g>
 </g>
</svg>
