<?xml version="1.0" encoding="UTF-8" standalone="no"?><!-- Generator: Gravit.io --><svg xmlns="http://www.w3.org/2000/svg" xmlns:xlink="http://www.w3.org/1999/xlink" style="isolation:isolate" viewBox="0 0 3000 4045" width="3000pt" height="4045pt"><defs><clipPath id="_clipPath_JkPcXgF6kxyLnyAhCOVxhMIZeaTgaWV1"><rect width="3000" height="4045"/></clipPath></defs><g clip-path="url(#_clipPath_JkPcXgF6kxyLnyAhCOVxhMIZeaTgaWV1)"><clipPath id="_clipPath_ZKSWu3b0frvpgM3OzVI0dRP7jpkzhIRS"><rect x="0" y="0.348" width="3000" height="4044.304" transform="matrix(1,0,0,1,0,0)" fill="rgb(96, 187, 70)"/></clipPath><g clip-path="url(#_clipPath_ZKSWu3b0frvpgM3OzVI0dRP7jpkzhIRS)"><g><g><path d=" M 1038.216 8.093 C 1024.735 13.409 1008.786 28.22 1002.141 41.701 L 996.824 52.523 L 995.875 790.199 C 994.925 1479.266 994.735 1528.633 991.697 1538.317 C 987.71 1551.228 968.533 1598.889 931.696 1687.372 C 886.316 1796.93 752.072 2091.622 628.46 2352.893 C 509.028 2605.62 465.545 2694.483 363.201 2894.995 C 157.944 3296.777 64.143 3503.173 24.459 3639.316 C 11.738 3682.797 8.51 3704.065 8.51 3742.799 C 8.51 3780.206 11.548 3801.661 21.042 3829.953 C 60.156 3946.919 184.716 4026.287 348.391 4039.009 C 368.518 4040.528 686.563 4040.908 1518.038 4040.528 C 2597.683 4039.958 2661.292 4039.578 2681.989 4036.541 C 2781.676 4021.161 2855.728 3988.691 2910.602 3936.285 C 2950.287 3898.499 2973.642 3859.954 2986.743 3810.775 C 2991.3 3794.067 2991.49 3790.459 2991.49 3740.9 C 2991.49 3691.533 2991.3 3687.545 2986.743 3668.746 C 2967.566 3589.757 2922.374 3474.312 2845.663 3309.878 C 2798.765 3209.053 2686.166 2982.149 2616.102 2847.715 C 2586.291 2790.563 2524.961 2667.141 2494.959 2604.481 C 2482.618 2578.278 2465.719 2543.342 2457.744 2526.631 C 2409.515 2426.186 2309.07 2212.954 2256.283 2098.457 C 2156.597 1882.377 2098.684 1752.88 2066.596 1674.08 C 2055.013 1645.789 2040.773 1610.851 2034.507 1596.23 C 2021.404 1564.901 2012.67 1540.596 2010.011 1528.823 C 2008.682 1523.127 2007.923 1281.223 2007.923 795.895 C 2007.923 342.088 2007.163 67.334 2006.024 60.308 C 2002.416 38.473 1988.556 19.296 1968.999 9.802 C 1960.834 5.625 1956.847 5.055 1939.566 5.055 C 1921.718 5.055 1918.68 5.625 1910.136 10.182 C 1897.225 16.827 1885.832 28.599 1879.377 41.701 L 1874.06 52.523 L 1873.491 790.199 C 1873.111 1603.066 1872.161 1540.216 1884.693 1581.04 C 1890.959 1601.167 1901.212 1627.939 1910.706 1648.448 C 1913.744 1655.283 1922.858 1676.929 1931.022 1696.865 C 2007.923 1885.795 2145.585 2187.699 2338.31 2589.291 C 2389.198 2695.053 2396.223 2709.864 2410.844 2741.194 C 2425.084 2771.573 2473.504 2867.273 2512.997 2943.413 C 2553.063 3020.503 2650.849 3215.509 2683.318 3283.296 C 2781.486 3487.603 2841.106 3631.341 2856.868 3701.976 C 2868.45 3753.811 2857.437 3799.953 2825.726 3833.37 C 2795.916 3864.701 2757.18 3884.258 2700.408 3896.41 C 2652.938 3906.663 2725.851 3906.093 1500.949 3906.093 C 263.516 3906.093 348.201 3906.853 297.313 3895.461 C 181.678 3869.448 126.044 3800.522 145.221 3706.723 C 158.704 3640.455 218.514 3494.059 307.566 3308.929 C 315.543 3292.22 325.227 3272.281 328.834 3264.496 C 337.568 3245.699 452.444 3015.946 465.165 2991.832 C 506.18 2913.602 586.498 2753.346 627.131 2668.09 C 643.842 2633.154 671.753 2574.481 689.222 2538.025 C 706.69 2501.378 737.641 2436.059 757.958 2392.768 C 778.464 2349.475 799.35 2305.045 804.478 2294.032 C 902.265 2087.444 1013.153 1840.603 1065.18 1713.954 C 1071.066 1699.334 1082.079 1673.321 1089.294 1656.042 C 1117.016 1590.344 1125.18 1564.901 1128.788 1533.001 C 1130.307 1519.899 1130.687 1301.159 1130.307 785.452 L 1129.737 56.321 L 1125.18 44.928 C 1119.674 31.447 1105.623 16.447 1091.763 9.802 C 1078.282 3.346 1052.459 2.397 1038.216 8.093 Z " fill="rgb(42,47,54)"/><path d=" M 1564.559 1173.942 C 1557.723 1175.841 1548.04 1181.917 1512.911 1205.651 C 1457.846 1243.058 1416.833 1256.729 1353.794 1258.628 C 1320.946 1259.577 1310.123 1258.628 1274.615 1252.172 L 1269.488 1251.223 L 1268.729 1397.999 C 1267.779 1556.357 1267.779 1555.977 1257.146 1598.509 C 1249.931 1626.8 294.465 3682.987 294.465 3702.925 C 294.465 3738.432 313.265 3757.419 355.037 3764.634 Q 370.416 3767.294 2644.963 3766.535 L 2659.204 3761.596 C 2685.596 3752.672 2698.13 3741.09 2704.206 3720.204 C 2710.092 3699.697 1749.499 1626.61 1741.904 1594.332 C 1732.031 1552.37 1732.031 1552.749 1731.271 1392.682 L 1730.512 1242.489 L 1711.145 1232.995 C 1692.725 1223.879 1686.27 1219.892 1644.877 1191.031 C 1620.951 1174.322 1613.736 1171.854 1589.622 1172.044 C 1578.989 1172.044 1567.787 1172.993 1564.559 1173.942 Z " fill="rgb(255,255,255)"/><circle vector-effect="non-scaling-stroke" cx="1243.5895691997791" cy="2339.089949323924" r="149.62196913610273" fill="rgb(96, 187, 70)"/><circle vector-effect="non-scaling-stroke" cx="1585.3896435234371" cy="1703.9154250032911" r="91.75061674164249" fill="rgb(96, 187, 70)"/><circle vector-effect="non-scaling-stroke" cx="1853.8558038946994" cy="2569.870182892549" r="122.02875512937885" fill="rgb(96, 187, 70)"/><path d=" M 1402.973 3317.473 C 1390.441 3322.41 1387.403 3338.359 1395.947 3353.169 C 1421.77 3397.981 1461.646 3423.994 1504.747 3424.373 C 1532.468 3424.563 1557.154 3415.449 1581.078 3396.462 C 1599.875 3381.462 1624.371 3348.612 1624.371 3338.359 C 1624.371 3331.523 1618.483 3321.27 1612.787 3318.422 C 1600.635 3311.966 1588.293 3317.473 1579.749 3332.853 C 1571.394 3348.422 1552.407 3367.221 1537.595 3374.627 C 1525.823 3380.513 1523.165 3381.082 1507.595 3381.082 C 1492.025 3381.082 1489.177 3380.513 1477.975 3375.006 C 1463.165 3367.601 1446.264 3351.27 1435.821 3333.992 C 1431.834 3327.536 1426.707 3320.701 1424.428 3318.992 C 1420.061 3315.384 1409.618 3314.815 1402.973 3317.473 Z " fill="rgb(42,47,54)"/><path d=" M 874.922 3211.142 C 828.782 3227.851 807.137 3279.498 828.213 3323.169 C 834.858 3336.65 852.327 3354.308 865.238 3360.196 C 896.949 3374.627 934.734 3367.981 958.278 3343.675 C 996.634 3304.372 984.482 3238.104 934.544 3214.749 C 922.392 3209.053 918.784 3208.294 902.835 3207.914 C 888.974 3207.534 882.516 3208.294 874.922 3211.142 Z " fill="rgb(42,47,54)"/><path d=" M 2080.836 3210.002 C 2059.38 3217.218 2041.722 3232.218 2032.037 3251.775 C 2007.733 3300.384 2037.925 3358.677 2091.659 3367.032 C 2149.952 3376.146 2198.371 3320.511 2180.901 3264.496 C 2173.686 3241.332 2159.066 3224.623 2137.23 3214.37 C 2126.408 3209.243 2122.42 3208.294 2106.659 3207.914 C 2095.456 3207.724 2085.773 3208.484 2080.836 3210.002 Z " fill="rgb(42,47,54)"/></g></g></g></g></svg>