<?xml version="1.0" encoding="UTF-8" standalone="no"?>
<!-- Created with Inkscape (http://www.inkscape.org/) -->

<svg
   width="992.3858"
   height="1332.3306"
   version="1.1"
   viewBox="0 0 992.3858 1332.3306"
   xml:space="preserve"
   id="svg8"
   sodipodi:docname="logof1.svg"
   inkscape:version="1.2.2 (732a01da63, 2022-12-09)"
   xmlns:inkscape="http://www.inkscape.org/namespaces/inkscape"
   xmlns:sodipodi="http://sodipodi.sourceforge.net/DTD/sodipodi-0.dtd"
   xmlns="http://www.w3.org/2000/svg"
   xmlns:svg="http://www.w3.org/2000/svg"><defs
     id="defs12" /><sodipodi:namedview
     id="namedview10"
     pagecolor="#505050"
     bordercolor="#ffffff"
     borderopacity="1"
     inkscape:showpageshadow="0"
     inkscape:pageopacity="0"
     inkscape:pagecheckerboard="1"
     inkscape:deskcolor="#505050"
     showgrid="false"
     inkscape:zoom="0.2821875"
     inkscape:cx="-178.95903"
     inkscape:cy="1027.6855"
     inkscape:window-width="1920"
     inkscape:window-height="1057"
     inkscape:window-x="-8"
     inkscape:window-y="-8"
     inkscape:window-maximized="1"
     inkscape:current-layer="g6" /><g
     transform="translate(-187.61418,-252.71864)"
     fill="#ffffff"
     id="g6"><path
       d="M 188,678 187.61418,929.4 188,928.0014 h 624 v 407 H 694 v 250 h 486 v -250 h -118 v -657 z"
       id="path2" /><path
       transform="scale(1.1135,0.89805)"
       d="m 594.51,1033.4 v 731.59 H 282.89 v -1010 c 0,0 -0.25601,-47.232 1.1656,-71.875 8.1252,-129.61 53.012,-217.24 103.61,-277.76 68.177,-68.384 128.58,-97.713 193.32,-110.66 51.629,-11.559 146.39,-20.429 209.31,-5.1605 v 278.38 c -42.533,-4.6504 -49.48,-5.0723 -84.148,-3.2059 -36.088,1.9429 -44.852,6.2886 -67.811,26.193 -28.398,29.174 -41.231,72.585 -43.816,106.06 -0.92331,16.986 0,58.029 0,58.029 z"
       stroke-width="1.1316"
       id="path4" /></g></svg>
