<svg width="992.39" height="1332.3" version="1.1" viewBox="0 0 992.39 1332.3" xml:space="preserve" xmlns="http://www.w3.org/2000/svg"><g transform="translate(-187.61 -252.7)" fill="#fff"><path d="m188 678-0.38582 251.4 0.38582-1.3986h624v407h-118v250h486v-250h-118v-657z"/><path transform="scale(1.1135 .89805)" d="m594.51 1033.4v731.59h-311.62v-1010s-0.25601-47.232 1.1656-71.875c8.1252-129.61 53.012-217.24 103.61-277.76 68.177-68.384 128.58-97.713 193.32-110.66 51.629-11.559 146.39-20.429 209.31-5.1605v278.38c-42.533-4.6504-49.48-5.0723-84.148-3.2059-36.088 1.9429-44.852 6.2886-67.811 26.193-28.398 29.174-41.231 72.585-43.816 106.06-0.92331 16.986 0 58.029 0 58.029z" stroke-width="1.1316"/></g></svg>
