<?xml version="1.0" encoding="UTF-8" standalone="no"?>
<!-- Created with Inkscape (http://www.inkscape.org/) -->

<svg
   inkscape:version="1.2.2 (732a01da63, 2022-12-09)"
   sodipodi:docname="logof1-opt.svg"
   id="svg8"
   xml:space="preserve"
   viewBox="0 0 992.3858 1332.3306"
   version="1.1"
   height="1332.3306"
   width="992.3858"
   xmlns:inkscape="http://www.inkscape.org/namespaces/inkscape"
   xmlns:sodipodi="http://sodipodi.sourceforge.net/DTD/sodipodi-0.dtd"
   xmlns="http://www.w3.org/2000/svg"
   xmlns:svg="http://www.w3.org/2000/svg"><defs
     id="defs12"><inkscape:path-effect
       effect="bspline"
       id="path-effect7950"
       is_visible="true"
       lpeversion="1"
       weight="33.333333"
       steps="2"
       helper_size="0"
       apply_no_weight="true"
       apply_with_weight="true"
       only_selected="false" /><inkscape:path-effect
       effect="bspline"
       id="path-effect7154"
       is_visible="true"
       lpeversion="1"
       weight="33.333333"
       steps="2"
       helper_size="0"
       apply_no_weight="true"
       apply_with_weight="true"
       only_selected="false" /><inkscape:path-effect
       effect="spiro"
       id="path-effect7078"
       is_visible="true"
       lpeversion="1" /><inkscape:path-effect
       effect="spiro"
       id="path-effect6827"
       is_visible="true"
       lpeversion="1" /><inkscape:path-effect
       effect="spiro"
       id="path-effect6631"
       is_visible="true"
       lpeversion="1" /><linearGradient
       id="linearGradient1578"
       inkscape:swatch="solid"><stop
         style="stop-color:#000000;stop-opacity:1;"
         offset="0"
         id="stop1576" /></linearGradient><inkscape:path-effect
       effect="spiro"
       id="path-effect1020"
       is_visible="true"
       lpeversion="1" /><inkscape:perspective
       sodipodi:type="inkscape:persp3d"
       inkscape:vp_x="0 : 666.1653 : 1"
       inkscape:vp_y="0 : 1000 : 0"
       inkscape:vp_z="992.3858 : 666.1653 : 1"
       inkscape:persp3d-origin="496.1929 : 444.1102 : 1"
       id="perspective1016" /><inkscape:path-effect
       effect="spiro"
       id="path-effect956"
       is_visible="true"
       lpeversion="1" /></defs><sodipodi:namedview
     id="namedview10"
     pagecolor="#505050"
     bordercolor="#ffffff"
     borderopacity="1"
     inkscape:showpageshadow="0"
     inkscape:pageopacity="0"
     inkscape:pagecheckerboard="1"
     inkscape:deskcolor="#505050"
     showgrid="false"
     inkscape:zoom="0.84043051"
     inkscape:cx="486.06041"
     inkscape:cy="367.66871"
     inkscape:window-width="1920"
     inkscape:window-height="1057"
     inkscape:window-x="-8"
     inkscape:window-y="-8"
     inkscape:window-maximized="1"
     inkscape:current-layer="g6" /><g
     transform="translate(-187.614, -252.719)"
     fill="#ffffff"
     id="g6"><path
       d="M 188,678 187.61418,929.4 188,928.0014 h 624 v 407 H 694 v 250 h 486 v -250 h -118 v -657 z"
       id="path2"
       style="display:inline" /><path
       transform="scale(1.1135,0.89805)"
       d="m 594.51,1033.4 v 731.59 H 282.89 v -1010 c 0,0 -0.25601,-47.232 1.1656,-71.875 8.1252,-129.61 53.012,-217.24 103.61,-277.76 68.177,-68.384 128.58,-97.713 193.32,-110.66 51.629,-11.559 146.39,-20.429 209.31,-5.1605 v 278.38 c -42.533,-4.6504 -49.48,-5.0723 -84.148,-3.2059 -36.088,1.9429 -44.852,6.2886 -67.811,26.193 -28.398,29.174 -41.231,72.585 -43.816,106.06 -0.92331,16.986 0,58.029 0,58.029 z"
       stroke-width="1.1316"
       id="path4"
       style="display:inline;stroke-width:1.13201207;stroke-dasharray:none" /><path
       style="opacity:0.8;fill:none;fill-opacity:1;fill-rule:nonzero;stroke:#00c800;stroke-width:300;stroke-linecap:butt;stroke-dasharray:none;stroke-opacity:1"
       d="m 139.614,802.719 638.17372,-2.37973 c 23.2048,-9.09202 49.53054,-9.98154 73.29614,-2.47662 23.76559,7.50492 44.80603,23.35217 58.5808,44.12194 10.79442,16.27594 17.14304,35.46944 18.18303,54.97186 1.03998,19.50241 -3.23143,39.26223 -12.23369,56.59385 v 483.1687 h 290 -528"
       id="path6629"
       inkscape:path-effect="#path-effect6631"
       inkscape:original-d="m 139.614,802.719 638.17372,-2.37973 c 0,0 82.76232,-20.83584 131.87694,41.64532 49.11463,62.48116 5.94934,111.56571 5.94934,111.56571 v 483.1687 h 290 -528"
       sodipodi:nodetypes="ccccccc"
       inkscape:label="path-st-i" /><path
       style="display:none;opacity:0.8;fill:none;fill-opacity:1;fill-rule:nonzero;stroke:#9646b4;stroke-width:500;stroke-linecap:butt;stroke-dasharray:none;stroke-opacity:1"
       d="m 230.51681,-43.84062 -6,742.3961 534.05295,-3.41422 -7.42398,660.00614"
       id="path6825"
       inkscape:path-effect="#path-effect6827"
       inkscape:original-d="m 230.51681,-43.84062 c -214.018652,-397.86641 -6,742.3961 -6,742.3961 l 534.05295,-3.41422 -7.42398,660.00614"
       sodipodi:nodetypes="cccc"
       transform="translate(187.614,252.719)"
       inkscape:label="pathii2" /><path
       style="opacity:0.8;fill:none;fill-opacity:1;fill-rule:nonzero;stroke:#9646b4;stroke-width:500;stroke-linecap:butt;stroke-dasharray:none;stroke-opacity:1"
       d="m 889.57537,159.73003 c 1.68272,80.38987 -90.63397,150.07196 -133.03827,208.00637 -42.4043,57.9344 -178.87051,43.44019 -227.45701,123.16179 -48.5865,79.72161 -52.12791,245.32885 -58.11123,434.88609 -5.98332,189.55722 -7.26942,444.70872 -8.55552,699.86112"
       id="path7948"
       sodipodi:nodetypes="czzzc" /></g></svg>
